<?xml version="1.0" encoding="utf-8"?>
<!-- Generated by IcoMoon.io -->
<svg version="1.1" xmlns="http://www.w3.org/2000/svg" xmlns:xlink="http://www.w3.org/1999/xlink" >
<svg id="icon-confetti"  viewBox="0 0 32 32" >
<path fill="#ffeacc" d="M29.592 7.018l-1.815-1.333-2.125 0.744 0.704-2.144-1.362-1.797 2.25 0.009 1.283-1.855 0.687 2.149 2.155 0.651-1.826 1.32z"></path>
<path fill="#cffcff" d="M29.869 13.456l-1.875 1.875-1.875-1.875 1.875-1.875z"></path>
<path fill="#cffcff" d="M19.368 4.955c-0.518 0.518-1.357 0.518-1.875 0s-0.518-1.357 0-1.875c0.518-0.518 1.357-0.518 1.875 0s0.518 1.357 0 1.875z"></path>
<path fill="#ff678b" d="M19.041 23.18l-16.528 8.073c-1.122 0.549-2.304-0.633-1.756-1.756l8.072-16.53z"></path>
<path fill="#ff99b1" d="M19.041 23.18c-1.025 1.026-4.143-0.429-6.963-3.25s-4.275-5.938-3.249-6.963c1.025-1.026 4.143 0.429 6.963 3.25s4.275 5.938 3.249 6.963z"></path>
<path fill="#ffeacc" d="M9.957 21.509c0 0.725-0.588 1.313-1.313 1.313s-1.313-0.588-1.313-1.313c0-0.725 0.588-1.313 1.313-1.313s1.313 0.588 1.313 1.313z"></path>
<path fill="#ffeacc" d="M9.869 27.66l-4.646 2.269c-0.752-1.027-0.665-2.478 0.264-3.407 1.025-1.025 2.688-1.025 3.713 0 0.328 0.328 0.551 0.72 0.668 1.137z"></path>
<path fill="#000" d="M29.561 7.64c-0.763 0-1.245-1.155-1.936-1.253s-1.777 1.133-2.437 0.485c-0.666-0.654 0.561-1.779 0.445-2.473-0.119-0.713-1.492-1.246-1.256-2.080 0.267-0.941 1.827-0.192 2.438-0.45 0.565-0.239 0.742-1.278 1.25-1.664 1.187-0.9 1.185 1.434 1.564 1.931 0.375 0.493 1.321 0.406 1.887 0.707 1.535 0.818-1.047 1.668-1.335 2.204-0.296 0.551 0.55 2.593-0.62 2.593zM27.747 5.057c0.408 0 0.854 0.478 1.162 0.704-0.008-0.38-0.123-0.927 0.051-1.276 0.175-0.353 0.677-0.587 0.988-0.811-0.363-0.11-0.919-0.17-1.197-0.444-0.28-0.276-0.346-0.824-0.462-1.189-0.23 0.332-0.478 0.891-0.875 1.047-0.337 0.132-0.835 0.030-1.186 0.029 0.23 0.303 0.644 0.68 0.708 1.065 0.065 0.388-0.204 0.873-0.323 1.237 0.343-0.12 0.765-0.36 1.135-0.36z"></path>
<path fill="#000" d="M27.964 15.951c-0.166 0-0.324-0.066-0.442-0.183l-1.873-1.875c-0.244-0.244-0.244-0.639 0-0.884l1.873-1.874c0.117-0.117 0.276-0.183 0.442-0.183s0.324 0.066 0.441 0.183l1.873 1.874c0.244 0.244 0.244 0.64 0 0.884l-1.873 1.875c-0.117 0.117-0.276 0.183-0.441 0.183zM26.974 13.452l0.99 0.991 0.99-0.991-0.99-0.991z"></path>
<path fill="#000" d="M18.411 5.966c-0.521 0-1.010-0.203-1.378-0.571-0.76-0.76-0.76-1.998 0-2.758 0.368-0.368 0.857-0.571 1.378-0.571s1.010 0.203 1.378 0.571c0.76 0.76 0.76 1.998 0 2.758-0.368 0.368-0.857 0.571-1.378 0.571zM18.411 3.315c-0.187 0-0.363 0.073-0.495 0.205-0.273 0.273-0.273 0.718 0 0.991 0.132 0.132 0.308 0.205 0.495 0.205s0.363-0.073 0.495-0.205c0.273-0.273 0.273-0.718 0-0.991-0.132-0.132-0.308-0.205-0.495-0.205z"></path>
<path fill="#000" d="M8.635 23.44c-0.517 0-1.003-0.202-1.369-0.568-0.755-0.755-0.755-1.984 0-2.74 0.365-0.366 0.852-0.568 1.369-0.568s1.003 0.202 1.369 0.568c0.755 0.755 0.755 1.984 0 2.74-0.365 0.366-0.852 0.567-1.369 0.567zM8.635 20.815c-0.184 0-0.356 0.072-0.486 0.201-0.268 0.268-0.268 0.705 0 0.973 0.13 0.13 0.303 0.201 0.486 0.201s0.356-0.072 0.486-0.201c0.13-0.13 0.201-0.303 0.201-0.486s-0.072-0.356-0.201-0.487c-0.13-0.13-0.303-0.201-0.486-0.201z"></path>
<path fill="#000" d="M19.405 20.101c-1.189-2.549-3.334-4.78-5.609-6.391-1.287-0.912-3.962-2.644-5.432-1.173-0.042 0.045-0.078 0.096-0.105 0.153l-8.063 16.524c-0.79 1.618 0.964 3.383 2.589 2.591l16.511-8.070c0.052-0.026 0.101-0.058 0.143-0.097 0.013-0.012 0.026-0.025 0.039-0.038 0.485-0.497 0.857-1.506-0.072-3.499-0.643-1.379 0.929 1.993 0 0zM5.475 29.099c-0.857-2.22 2.357-3.802 3.58-1.75zM10.179 26.799c-1.931-3.488-7.404-0.837-5.829 2.85l-2.113 1.033c-0.578 0.283-1.202-0.341-0.919-0.92l6.921-14.185c0.719 1.817 2.017 3.42 3.385 4.789 1.366 1.367 2.969 2.673 4.785 3.388zM18.58 22.731c-0.652 0.652-2.44-0.453-3.005-0.793-1.124-0.675-2.141-1.53-3.067-2.456-0.957-0.956-1.839-2.014-2.521-3.185-0.309-0.531-1.364-2.284-0.725-2.893 0.625-0.596 2.229 0.348 2.775 0.658 1.216 0.691 2.311 1.604 3.297 2.591 0.925 0.926 1.779 1.945 2.454 3.070 0.344 0.573 1.444 2.355 0.792 3.008-0.114 0.114 0.114-0.114 0 0z"></path>
<path fill="#000" d="M12.045 11.291c-0.16 0-0.319-0.061-0.441-0.183-0.244-0.244-0.244-0.64 0-0.884 2.191-2.193 2.191-5.761 0-7.954-0.244-0.244-0.244-0.64 0-0.884s0.639-0.244 0.883 0c2.678 2.68 2.678 7.041 0 9.721-0.122 0.122-0.282 0.183-0.442 0.183z"></path>
<path fill="#000" d="M30.102 20.526c-0.16 0-0.32-0.061-0.441-0.183-1.062-1.062-2.473-1.647-3.974-1.647s-2.912 0.585-3.973 1.647c-0.244 0.244-0.639 0.244-0.883 0s-0.244-0.64 0-0.884c1.297-1.298 3.022-2.013 4.856-2.013s3.559 0.715 4.856 2.013c0.244 0.244 0.244 0.64 0 0.884-0.122 0.122-0.282 0.183-0.441 0.183z"></path>
<path fill="#000" d="M10.076 1.315c-0.345 0-0.625-0.28-0.625-0.625s0.279-0.625 0.624-0.625h0.001c0.345 0 0.624 0.28 0.624 0.625s-0.28 0.625-0.624 0.625z"></path>
<path fill="#000" d="M17.224 15.327c-0.29 0-0.549-0.203-0.611-0.498-0.019-0.092-0.454-2.261 0.651-3.942 0.594-0.905 1.505-1.488 2.707-1.734 0.276-0.057 0.546-0.091 0.807-0.103 0.201-1.697 1.233-3.272 2.968-4.429 0.287-0.191 0.675-0.114 0.866 0.173s0.114 0.675-0.173 0.866c-1.048 0.699-1.77 1.533-2.147 2.479-0.145 0.363-0.227 0.713-0.266 1.038 0.692 0.188 1.272 0.573 1.688 1.14 0.595 0.81 0.751 1.896 0.371 2.583-0.23 0.417-0.642 0.646-1.1 0.613-0.849-0.062-1.696-1.073-2.061-2.458-0.066-0.252-0.114-0.505-0.145-0.756-0.173 0.012-0.358 0.037-0.558 0.078-0.877 0.18-1.503 0.571-1.915 1.197-0.81 1.232-0.475 2.983-0.472 3 0.070 0.338-0.146 0.669-0.484 0.739-0.043 0.009-0.086 0.013-0.128 0.013zM22.083 10.527c0.209 1.008 0.704 1.585 0.934 1.714 0.056-0.179 0.045-0.617-0.224-1.057-0.127-0.208-0.346-0.47-0.71-0.657z"></path>
</svg>
<svg id="icon-sad" viewBox="0 0 32 32">
<path fill="#ffca28" d="M32 16c0 8.837-7.163 16-16 16s-16-7.163-16-16c0-8.837 7.163-16 16-16s16 7.163 16 16z"></path>
<path fill="#6d4c41" d="M22.364 24.636c-0.256 0-0.512-0.098-0.708-0.292-3.024-3.024-8.292-3.024-11.314 0-0.39 0.39-1.024 0.39-1.414 0s-0.39-1.024 0-1.414c1.89-1.888 4.4-2.93 7.072-2.93s5.182 1.042 7.070 2.93c0.39 0.39 0.39 1.024 0 1.414-0.194 0.196-0.45 0.292-0.706 0.292z"></path>
<path fill="#6d4c41" d="M12 12c0 1.105-0.895 2-2 2s-2-0.895-2-2c0-1.105 0.895-2 2-2s2 0.895 2 2z"></path>
<path fill="#6d4c41" d="M24 12c0 1.105-0.895 2-2 2s-2-0.895-2-2c0-1.105 0.895-2 2-2s2 0.895 2 2z"></path>
</svg>
</svg>
